<svg xmlns="http://www.w3.org/2000/svg" viewBox="0 0 329.12 205"><defs><style>.cls-1{fill:#fff;}</style></defs><g id="Capa_2" data-name="Capa 2"><g id="Capa_2-2" data-name="Capa 2"><path class="cls-1" d="M304.94,172.39,277.5,154.87V79.68l27-17.43,2.15-1.39-4.34-6.72L258,82.74V58H122.9a61.5,61.5,0,1,0-61.4,65,60.69,60.69,0,0,0,6.5-.35V205H189V180h69V151.92l44.81,28.59,2.15-3.37,2.15-3.37ZM250,66V87.9c0,.1-12,7.1-12,7.1h-4L219.5,66Zm-47.5,0,14.88,29.75-14.07-.13L188.5,66Zm-46,0h14l14.68,29.36-4.18,0-9.89-.08M68,114.6a51.68,51.68,0,0,1-6.5.4,53.53,53.53,0,1,1,49-32H80.17A28.52,28.52,0,1,0,68,89.24ZM63.6,81.89A20.5,20.5,0,1,1,81.89,63.6,20.52,20.52,0,0,1,63.6,81.89ZM181,197H76V91h43v89h62Zm69-25H127V66h11.5l10.39,20.78L158,104h31l36.28-.15-21.19,13.67L218,126H169l5,9h57.54L250,146.81Zm16.5-24.15-8.5-5.42-8-5.11-31.09-19.84L250,97.42l8-5.16,8.5-5.48Z"/><path class="cls-1" d="M143.56,25.42a12.45,12.45,0,0,1-.49,3.63,8,8,0,0,1-1.49,2.81,6.61,6.61,0,0,1-2.52,1.8,10.47,10.47,0,0,1-7.18,0,6.74,6.74,0,0,1-2.52-1.81,7.6,7.6,0,0,1-1.49-2.8,12.61,12.61,0,0,1-.5-3.64,11.5,11.5,0,0,1,.88-4.64,6.68,6.68,0,0,1,2.69-3.08,8.7,8.7,0,0,1,4.58-1.1,8.49,8.49,0,0,1,4.49,1.1,6.64,6.64,0,0,1,2.67,3.08A11.4,11.4,0,0,1,143.56,25.42Zm-12.91,0a9.72,9.72,0,0,0,.51,3.33,4.21,4.21,0,0,0,1.59,2.14,5.4,5.4,0,0,0,5.49,0,4.26,4.26,0,0,0,1.55-2.14,10,10,0,0,0,.5-3.33,8.09,8.09,0,0,0-1.12-4.56,4.1,4.1,0,0,0-3.65-1.65,4.82,4.82,0,0,0-2.77.74,4.21,4.21,0,0,0-1.59,2.14A9.64,9.64,0,0,0,130.65,25.42Z"/><path class="cls-1" d="M149,34.05V16.85h3.13V31.42h7.16v2.63Z"/><path class="cls-1" d="M174,34.05h-9.78V16.85H174v2.57h-6.7v4.39h6.27v2.58h-6.27v5.06H174Zm-.72-22.36a9.71,9.71,0,0,1-.8.82c-.33.32-.7.65-1.09,1l-1.16,1c-.38.31-.72.58-1,.8h-2V15c.26-.3.55-.66.87-1.07s.64-.84,1-1.28.58-.84.78-1.19h3.5Z"/><path class="cls-1" d="M190.21,34.05l-1.62-4.53h-6.36l-1.59,4.53h-3.3l6.31-17.28h3.54l6.32,17.28Zm-3.86-11.47c-.06-.19-.16-.5-.29-.93s-.25-.86-.37-1.32-.22-.83-.28-1.1c-.08.35-.17.74-.28,1.17s-.21.83-.31,1.2-.2.71-.28,1l-1.49,4.29h4.77Z"/><path class="cls-1" d="M210.87,16.85q3.36,0,4.93,1.36a4.8,4.8,0,0,1,1.58,3.84,6.5,6.5,0,0,1-.35,2.12A4.92,4.92,0,0,1,215.9,26a5.46,5.46,0,0,1-2.09,1.28,9.44,9.44,0,0,1-3.18.47h-1.71v6.31h-3.13V16.85Zm-.14,2.57h-1.81v5.71h1.42a6.49,6.49,0,0,0,2.1-.29,2.54,2.54,0,0,0,1.33-.95,3,3,0,0,0,.45-1.72,2.52,2.52,0,0,0-.84-2.05A4.14,4.14,0,0,0,210.73,19.42Z"/><path class="cls-1" d="M228.46,34.05h-7.23V32.29l2.08-.77V19.4l-2.08-.8V16.85h7.23V18.6l-2.07.8V31.52l2.07.77Z"/><path class="cls-1" d="M240.87,19.23a5.11,5.11,0,0,0-2.1.42,4.35,4.35,0,0,0-1.59,1.24,6.14,6.14,0,0,0-1,2,9.09,9.09,0,0,0-.35,2.6,8.73,8.73,0,0,0,.57,3.32,4.43,4.43,0,0,0,1.71,2.14,5.19,5.19,0,0,0,2.86.73,9.38,9.38,0,0,0,2.15-.24c.68-.16,1.36-.35,2-.58v2.65a10.21,10.21,0,0,1-2.11.61,15.39,15.39,0,0,1-2.49.19,8.32,8.32,0,0,1-4.45-1.1,6.69,6.69,0,0,1-2.64-3.08,11.57,11.57,0,0,1-.86-4.66,11.24,11.24,0,0,1,.54-3.57,8,8,0,0,1,1.6-2.81,7.13,7.13,0,0,1,2.6-1.83,9.31,9.31,0,0,1,3.54-.64,12.6,12.6,0,0,1,2.59.28,10.93,10.93,0,0,1,2.38.81l-1.06,2.53a13,13,0,0,0-1.84-.7A7.33,7.33,0,0,0,240.87,19.23Z"/><path class="cls-1" d="M256.94,34.05h-3.11V19.47h-4.91V16.85h12.93v2.62h-4.91Z"/><path class="cls-1" d="M280,28a6.68,6.68,0,0,1-.76,3.21,5.42,5.42,0,0,1-2.3,2.27,8.2,8.2,0,0,1-3.9.83A6.83,6.83,0,0,1,268,32.54a6.24,6.24,0,0,1-1.74-4.61V16.85h3.09V27.62a4.25,4.25,0,0,0,1,3.07,3.86,3.86,0,0,0,2.87,1,4.59,4.59,0,0,0,2.18-.45,2.84,2.84,0,0,0,1.23-1.39,5.74,5.74,0,0,0,.39-2.23V16.85H280Z"/><path class="cls-1" d="M291.32,16.85a10.43,10.43,0,0,1,3.67.55,4.3,4.3,0,0,1,2.17,1.65,5,5,0,0,1,.71,2.76,4.7,4.7,0,0,1-.45,2.14,4.21,4.21,0,0,1-1.18,1.48,7.08,7.08,0,0,1-1.6,1l4.82,7.64h-3.57l-4-6.8h-2.55v6.8h-3.14V16.85Zm-.1,2.5h-1.85V24.8h1.92a4,4,0,0,0,2.54-.7,2.59,2.59,0,0,0,.86-2.15,2.73,2.73,0,0,0-.36-1.48,2.11,2.11,0,0,0-1.13-.84A5.85,5.85,0,0,0,291.22,19.35Z"/><path class="cls-1" d="M313.53,34.05h-9.78V16.85h9.78v2.57h-6.7v4.39h6.27v2.58h-6.27v5.06h6.7Z"/><path class="cls-1" d="M329.12,29.35a4.59,4.59,0,0,1-.75,2.63,4.85,4.85,0,0,1-2.16,1.71,8.52,8.52,0,0,1-3.36.6,14.71,14.71,0,0,1-1.79-.11,10.1,10.1,0,0,1-1.62-.33,8.29,8.29,0,0,1-1.4-.53V30.43a19.81,19.81,0,0,0,2.38.88,8.87,8.87,0,0,0,2.65.4,4.34,4.34,0,0,0,1.7-.28,2,2,0,0,0,1-.77,2.16,2.16,0,0,0,.31-1.14,1.92,1.92,0,0,0-.41-1.23,4.07,4.07,0,0,0-1.21-.94c-.53-.29-1.19-.59-2-.92a15.93,15.93,0,0,1-1.56-.75,6.58,6.58,0,0,1-1.36-1,4.56,4.56,0,0,1-1-1.42,4.78,4.78,0,0,1-.36-1.93,4.4,4.4,0,0,1,.71-2.53,4.47,4.47,0,0,1,2-1.61,7.54,7.54,0,0,1,3-.56,11.27,11.27,0,0,1,2.58.29,14.58,14.58,0,0,1,2.38.82l-1,2.48a16.17,16.17,0,0,0-2-.72,7.69,7.69,0,0,0-2-.26,3.47,3.47,0,0,0-1.4.25,2,2,0,0,0-.79,2.95,3.44,3.44,0,0,0,1.12.9c.51.29,1.16.6,2,1a13.87,13.87,0,0,1,2.36,1.25,4.74,4.74,0,0,1,1.5,1.56A4.54,4.54,0,0,1,329.12,29.35Z"/></g></g></svg>