<svg xmlns="http://www.w3.org/2000/svg" viewBox="0 0 311.15 205"><defs><style>.cls-1{fill:#fff;}</style></defs><g id="Capa_2" data-name="Capa 2"><g id="Capa_2-2" data-name="Capa 2"><path class="cls-1" d="M304.94,172.39,277.5,154.87V79.68l27-17.43,2.15-1.39-4.34-6.72L258,82.74V58H122.9a61.5,61.5,0,1,0-61.4,65,60.69,60.69,0,0,0,6.5-.35V205H189V180h69V151.92l44.81,28.59,2.15-3.37,2.15-3.37ZM250,66V87.9c0,.1-12,7.1-12,7.1h-4L219.5,66Zm-47.5,0,14.88,29.75-14.07-.13L188.5,66Zm-46,0h14l14.68,29.36-4.18,0-9.89-.08M68,114.6a51.68,51.68,0,0,1-6.5.4,53.53,53.53,0,1,1,49-32H80.17A28.52,28.52,0,1,0,68,89.24ZM63.6,81.89A20.5,20.5,0,1,1,81.89,63.6,20.52,20.52,0,0,1,63.6,81.89ZM181,197H76V91h43v89h62Zm69-25H127V66h11.5l10.39,20.78L158,104h31l36.28-.15-21.19,13.67L218,126H169l5,9h57.54L250,146.81Zm16.5-24.15-8.5-5.42-8-5.11-31.09-19.84L250,97.42l8-5.16,8.5-5.48Z"/><path class="cls-1" d="M151.41,26.36a14.58,14.58,0,0,1-.57,4.21,8.88,8.88,0,0,1-1.74,3.26,7.41,7.41,0,0,1-2.92,2.1,10.76,10.76,0,0,1-4.15.73,10.91,10.91,0,0,1-4.2-.74,7.83,7.83,0,0,1-2.92-2.1,8.85,8.85,0,0,1-1.74-3.27,14.6,14.6,0,0,1-.57-4.22,13.22,13.22,0,0,1,1-5.39,7.76,7.76,0,0,1,3.12-3.59,10.1,10.1,0,0,1,5.32-1.27,9.85,9.85,0,0,1,5.22,1.27,7.79,7.79,0,0,1,3.11,3.59A13.3,13.3,0,0,1,151.41,26.36Zm-15,0a11.39,11.39,0,0,0,.59,3.86,5,5,0,0,0,1.85,2.49,5.48,5.48,0,0,0,3.19.87,5.4,5.4,0,0,0,3.19-.87A5,5,0,0,0,147,30.22a11.67,11.67,0,0,0,.57-3.86,9.35,9.35,0,0,0-1.3-5.31,4.75,4.75,0,0,0-4.24-1.92,5.54,5.54,0,0,0-3.22.87A5,5,0,0,0,137,22.48,11.35,11.35,0,0,0,136.4,26.36Z"/><path class="cls-1" d="M157.77,36.38v-20h3.64V33.33h8.31v3.05Z"/><path class="cls-1" d="M186.78,36.38H175.41v-20h11.37v3H179v5.1h7.28v3H179v5.89h7.79Zm-.84-26c-.23.27-.54.58-.93,1s-.81.76-1.27,1.16l-1.35,1.15c-.43.36-.83.67-1.19.93h-2.35v-.36c.3-.35.64-.77,1-1.25s.74-1,1.11-1.48.66-1,.91-1.38h4.06Z"/><path class="cls-1" d="M205.62,36.38l-1.88-5.26h-7.39l-1.85,5.26h-3.83L198,16.3h4.12l7.34,20.08Zm-4.48-13.33c-.08-.22-.19-.58-.34-1.08s-.29-1-.43-1.54-.25-.95-.32-1.27c-.1.41-.2.86-.33,1.36s-.24,1-.36,1.4-.23.81-.32,1.13l-1.74,5h5.55Z"/><path class="cls-1" d="M227.38,36.38h-3.53v-20h11.34v3h-7.81v5.88h7.28v3h-7.28Z"/><path class="cls-1" d="M247.93,36.38h-8.4V34.33l2.41-.89V19.36l-2.41-.93v-2h8.4v2l-2.41.93V33.44l2.41.89Z"/><path class="cls-1" d="M253.64,36.38v-20h3.64V33.33h8.31v3.05Z"/><path class="cls-1" d="M279.87,36.38,274.39,20h-.12c0,.37.05.9.09,1.58s.07,1.42.1,2.21,0,1.54,0,2.23V36.38h-3.22v-20h5l5.27,15.7h.11l5.49-15.7h5v20h-3.42V25.85c0-.63,0-1.33.05-2.08s.05-1.48.08-2.16.05-1.21.07-1.58h-.11l-5.71,16.35Z"/><path class="cls-1" d="M311.15,30.92a5.33,5.33,0,0,1-.87,3,5.57,5.57,0,0,1-2.5,2,9.9,9.9,0,0,1-3.91.7,15.38,15.38,0,0,1-2.08-.13,11.8,11.8,0,0,1-1.88-.38,9.61,9.61,0,0,1-1.64-.61V32.18a26,26,0,0,0,2.77,1,10.45,10.45,0,0,0,3.08.46,5.13,5.13,0,0,0,2-.32,2.34,2.34,0,0,0,1.13-.89,2.48,2.48,0,0,0,.36-1.33,2.16,2.16,0,0,0-.47-1.43,4.68,4.68,0,0,0-1.4-1.1,23.8,23.8,0,0,0-2.3-1.06,18.68,18.68,0,0,1-1.8-.88A6.9,6.9,0,0,1,300,25.46a5.24,5.24,0,0,1-1.12-1.65,5.36,5.36,0,0,1-.42-2.24,5.15,5.15,0,0,1,.82-2.94,5.23,5.23,0,0,1,2.32-1.88,8.77,8.77,0,0,1,3.49-.64,13.13,13.13,0,0,1,3,.33,16.5,16.5,0,0,1,2.77.95l-1.15,2.89a15.83,15.83,0,0,0-2.38-.84,8.82,8.82,0,0,0-2.35-.31,4.17,4.17,0,0,0-1.63.29,2.33,2.33,0,0,0-.92,3.44,4,4,0,0,0,1.3,1q.89.5,2.28,1.11a16.55,16.55,0,0,1,2.75,1.46,5.68,5.68,0,0,1,1.74,1.82A5.17,5.17,0,0,1,311.15,30.92Z"/></g></g></svg>